<svg xmlns="http://www.w3.org/2000/svg" viewBox="0 0 512 512">
  <rect width="512" height="512" rx="116" fill="#0E1A1C"/>
  <g fill="none" stroke="#E3A93B" stroke-linecap="round" stroke-width="26">
    <path d="M104 292a152 152 0 0 1 304 0" opacity=".28"/>
    <path d="M150 292a106 106 0 0 1 212 0" opacity=".55"/>
    <path d="M196 292a60 60 0 0 1 120 0"/>
  </g>
  <path d="M256 292 350 172" stroke="#E3A93B" stroke-width="14" stroke-linecap="round"/>
  <circle cx="321" cy="208" r="21" fill="#E5483A"/>
  <path d="M72 300c78 68 290 68 368 0-20 46-110 72-184 72S92 346 72 300Z" fill="#E3A93B"/>
  <path d="M150 414q26-16 52 0t52 0 52 0 52 0" fill="none" stroke="#3FB9A0" stroke-width="12" stroke-linecap="round" opacity=".75"/>
</svg>
